# xmcd
#
# Track frame offsets: 
#        150
#        15487
#        48315
#        76462
#        90312
#        103922
#        131720
#        154025
#        174292
#        188022
#        201912
#        212237
#        224962
#
# Disc length: 3269 seconds
#
# Revision: 1
# Processed by: cddbd v1.5.2PL0 Copyright (c) Steve Scherf et al.
# Submitted via: ExactAudioCopy v0.95b2
#
DISCID=b40cc30d
DTITLE=The Ebonys - The Ebonys
DYEAR=1973
DGENRE=R&B
TTITLE0=Hook Up And Get Down
TTITLE1=It's Forever
TTITLE2=Life In The Country
TTITLE3=Sexy Ways
TTITLE4=I'm So Glad I'm Me
TTITLE5=I'll Try
TTITLE6=Nation Time
TTITLE7=I Believe
TTITLE8=You're The Reason Why
TTITLE9=Do You Like The Way Love
TTITLE10=Determination
TTITLE11=Do It
TTITLE12=It's Forever
EXTD=
EXTT0=
EXTT1=
EXTT2=
EXTT3=
EXTT4=
EXTT5=
EXTT6=
EXTT7=
EXTT8=
EXTT9=
EXTT10=
EXTT11=
EXTT12=
PLAYORDER=
